<?xml version="1.0" encoding="UTF-8"?>
<svg version="1.1" xmlns="http://www.w3.org/2000/svg">
<path d="M0 0 C2.475 0.99 2.475 0.99 5 2 C4.23762376 7.59075908 4.23762376 7.59075908 2.875 9.9375 C1.528162 13.11218958 2.35829255 15.67478865 3 19 C3.185625 19.969375 3.37125 20.93875 3.5625 21.9375 C3.706875 22.618125 3.85125 23.29875 4 24 C-2.625 27 -2.625 27 -6 27 C-8.98784437 21.99237284 -8.60745213 16.65226803 -8 11 C-6.4498015 6.50122807 -3.52397428 3.14640561 0 0 Z " fill="#FFFFFF" transform="translate(8,0)"/>
<path d="M0 0 C2.475 0.99 2.475 0.99 5 2 C4.23762376 7.59075908 4.23762376 7.59075908 2.875 9.9375 C1.13092159 14.04854196 2.83178896 18.8278177 4 23 C0.79663178 25.83374881 -1.78087253 26.5205537 -6 27 C-8.59305229 21.22836748 -9.53151053 16.65070661 -8.015625 10.44140625 C-6.25278688 6.20381461 -3.28120899 3.14083641 0 0 Z " fill="#FFFFFF" transform="translate(23,0)"/>
</svg>
